<?xml version="1.0" encoding="UTF-8" standalone="no"?>
<!-- Created with Inkscape (http://www.inkscape.org/) -->

<svg
   width="7.8099799mm"
   height="7.8312488mm"
   viewBox="0 0 7.8099799 7.8312488"
   version="1.1"
   id="svg1"
   xmlns="http://www.w3.org/2000/svg"
   xmlns:svg="http://www.w3.org/2000/svg">
  <defs
     id="defs1" />
  <g
     id="layer1"
     transform="translate(-113.77083,-107.68543)">
    <path
       style="fill:#67aefc;fill-opacity:1;stroke-width:0.0134359"
       d="m 116.33646,111.15905 0.84367,1.38392 c 0.0524,0.086 0.13824,0.14827 0.23617,0.17203 0.0979,0.0237 0.20275,0.008 0.28873,-0.0447 l 3.69261,-2.25109 c 0.18009,-0.10978 0.23709,-0.34482 0.12731,-0.5249 -0.10979,-0.18009 -0.34482,-0.23709 -0.52491,-0.12731 l -3.3665,2.05229 -0.64487,-1.05781 c -0.10978,-0.18009 -0.34481,-0.23709 -0.5249,-0.1273 -0.18139,0.10946 -0.2384,0.3445 -0.12731,0.5249 z"
       id="path819" />
    <path
       style="fill:#67aefc;fill-opacity:1;stroke-width:0.0134359"
       d="m 120.28614,112.23171 -0.54057,2.22889 c -0.0497,0.205 -0.25707,0.33029 -0.46076,0.28089 l -4.45778,-1.08114 c -0.205,-0.0497 -0.33029,-0.25707 -0.28089,-0.46076 l 1.08114,-4.45778 c 0.0497,-0.205 0.25707,-0.33029 0.46076,-0.28089 l 3.34268,0.81069 c 0.205,0.0497 0.41105,-0.0759 0.46077,-0.28089 0.0513,-0.20599 -0.0756,-0.41235 -0.28058,-0.46207 l -3.34268,-0.81069 c -0.615,-0.14916 -1.23476,0.22866 -1.38392,0.84366 l -1.08082,4.45647 c -0.14947,0.61631 0.22835,1.23607 0.84335,1.38522 l 4.45647,1.08083 c 0.615,0.14915 1.23476,-0.22867 1.38392,-0.84367 l 0.54057,-2.22889 c 0.0497,-0.205 -0.0759,-0.41104 -0.2809,-0.46076 -0.205,-0.0497 -0.41104,0.0759 -0.46076,0.28089 z"
       id="path821" />
  </g>
</svg>
