<?xml version="1.0" encoding="UTF-8" standalone="no"?>
<svg
   xmlns:dc="http://purl.org/dc/elements/1.1/"
   xmlns:cc="http://creativecommons.org/ns#"
   xmlns:rdf="http://www.w3.org/1999/02/22-rdf-syntax-ns#"
   xmlns:svg="http://www.w3.org/2000/svg"
   xmlns="http://www.w3.org/2000/svg"
   id="svg8"
   version="1.1"
   viewBox="0 0 63.499998 11.906251"
   height="45"
   width="240">
  <defs
     id="defs2" />
  <metadata
     id="metadata5">
    <rdf:RDF>
      <cc:Work
         rdf:about="">
        <dc:format>image/svg+xml</dc:format>
        <dc:type
           rdf:resource="http://purl.org/dc/dcmitype/StillImage" />
        <dc:title></dc:title>
      </cc:Work>
    </rdf:RDF>
  </metadata>
  <g
     transform="translate(0,-285.09374)"
     id="layer1">
    <g
       id="text817"
       style="font-style:normal;font-variant:normal;font-weight:normal;font-stretch:normal;font-size:13.69830704px;line-height:1.25;font-family:'Grand Hotel';-inkscape-font-specification:'Grand Hotel';letter-spacing:0px;word-spacing:0px;fill:#000000;fill-opacity:1;stroke:none;stroke-width:0.3424581"
       aria-label="Track'em all">
      <path
         id="path818"
         style="font-style:normal;font-variant:normal;font-weight:normal;font-stretch:normal;font-family:'Grand Hotel';-inkscape-font-specification:'Grand Hotel';fill:#67aefc;fill-opacity:1;stroke-width:0.3424581"
         d="m 6.9352497,294.66535 q 0,0.45482 -0.060198,0.77588 -0.053509,0.32105 -0.1538384,0.52171 -0.1003294,0.20066 -0.2474792,0.2943 -0.1404612,0.0936 -0.3076768,0.0936 -0.1270839,0 -0.2809223,-0.087 -0.1538385,-0.087 -0.2942996,-0.21404 -0.1337725,-0.12708 -0.2274133,-0.26085 -0.086952,-0.13378 -0.086952,-0.2341 0,-0.0669 0.013377,-0.087 0.020066,-0.0134 0.04682,-0.0134 0.033443,0.007 0.073575,0.0201 0.04682,0.0134 0.1003294,0.0134 0.1872815,0 0.267545,-0.2341 0.086952,-0.24079 0.086952,-0.76251 v -7.56483 q -0.6354195,0.0535 -1.2240187,0.22741 -0.5885991,0.16722 -1.0367371,0.50834 -0.448138,0.34112 -0.715683,0.88958 -0.2675451,0.54178 -0.2675451,1.33773 0,0.3545 0.066886,0.64211 0.073575,0.28092 0.1872815,0.50833 0.1137067,0.22742 0.2474792,0.40132 0.1404612,0.1739 0.2742337,0.30768 0.1137066,-0.0334 0.160527,0.0268 0.04682,0.0602 0.04682,0.16722 0,0.13377 -0.060198,0.28092 -0.053509,0.14046 -0.1471498,0.26086 -0.093641,0.1137 -0.214036,0.19397 -0.1137067,0.0736 -0.234102,0.0736 -0.053509,0 -0.107018,-0.0134 -0.04682,-0.0134 -0.1003294,-0.0602 -0.1471498,-0.10702 -0.3544972,-0.34781 -0.2073474,-0.24748 -0.394629,-0.60867 -0.1872815,-0.36118 -0.321054,-0.8227 -0.1337726,-0.4682 -0.1337726,-1.00998 0,-0.98992 0.3678745,-1.74573 0.3678744,-0.75582 1.0233598,-1.26415 0.6554854,-0.51503 1.5517614,-0.77588 0.9029646,-0.26086 1.9731448,-0.26086 0.2474792,0 0.5952878,0.007 0.3544972,0 0.7023057,0.007 0.3478086,0.007 0.6220423,0.0134 0.2809223,0 0.3812517,0 0.086952,0 0.1404612,-0.0134 0.060198,-0.0201 0.093641,-0.0401 0.040132,-0.0201 0.060198,-0.0334 0.020066,-0.0201 0.033443,-0.0201 0.033443,0 0.060198,0.0468 0.033443,0.0401 0.053509,0.10701 0.026754,0.0602 0.040132,0.14047 0.013377,0.0803 0.013377,0.16052 0,0.1204 -0.033443,0.25417 -0.033443,0.12708 -0.1003294,0.2341 -0.066886,0.10033 -0.1672156,0.16722 -0.1003294,0.0669 -0.2341019,0.0669 -0.073575,0 -0.2742337,0 -0.1939702,-0.007 -0.448138,-0.0134 -0.2541678,-0.007 -0.5350901,-0.0134 -0.2809223,-0.007 -0.5217129,-0.0134 z" />
      <path
         id="path820"
         style="font-style:normal;font-variant:normal;font-weight:normal;font-stretch:normal;font-family:'Grand Hotel';-inkscape-font-specification:'Grand Hotel';fill:#67aefc;fill-opacity:1;stroke-width:0.3424581"
         d="m 11.583845,295.81579 q -0.24079,0 -0.494958,-0.0736 -0.247479,-0.0736 -0.454827,-0.25417 -0.200659,-0.18059 -0.334431,-0.47489 -0.127084,-0.30099 -0.127084,-0.75582 0,-0.66217 0.173904,-1.39792 0.180593,-0.74244 0.515025,-1.63203 H 9.8180478 9.6642094 q -0.00669,0.20066 -0.026755,0.50834 -0.013377,0.30768 -0.053509,0.65548 -0.040132,0.34781 -0.107018,0.70231 -0.060198,0.3545 -0.1538384,0.65549 -0.066886,0.21403 -0.2140361,0.24748 -0.1404611,0.0334 -0.2809223,-0.0468 -0.1404612,-0.087 -0.2274133,-0.24747 -0.086952,-0.16053 -0.040132,-0.33444 0.053509,-0.20734 0.093641,-0.50164 0.040132,-0.30099 0.060198,-0.62873 0.026755,-0.33443 0.040132,-0.66218 0.013377,-0.33443 0.020066,-0.59529 -0.2541678,-0.14046 -0.4213835,-0.35449 -0.1672156,-0.22073 -0.1672156,-0.52172 0,-0.14046 0.053509,-0.25416 0.060198,-0.1204 0.1538384,-0.20066 0.093641,-0.087 0.2207247,-0.12709 0.1270839,-0.0468 0.2608564,-0.0468 0.1203953,0 0.2474792,0.0335 0.1337725,0.0334 0.2474791,0.12039 0.1203953,0.087 0.2140361,0.22742 0.093641,0.14046 0.1538384,0.3478 0.1672157,0.0201 0.2809227,0.0335 0.120395,0.007 0.200658,0.0134 0.08026,0.007 0.133773,0.007 0.05351,0 0.107018,0 h 0.715683 q 0.0602,0 0.173904,0.0736 0.120396,0.0736 0.234102,0.19397 0.113707,0.1137 0.187282,0.24748 0.08026,0.13377 0.0602,0.25416 0,0.0401 -0.04682,0.19398 -0.04682,0.15383 -0.113707,0.38794 -0.06689,0.2341 -0.147149,0.54177 -0.08026,0.30099 -0.14715,0.63542 -0.06689,0.33444 -0.113707,0.69562 -0.04682,0.3545 -0.04682,0.69562 0,0.14046 0.03344,0.27423 0.03344,0.13377 0.100329,0.24079 0.06689,0.10033 0.167216,0.16053 0.107018,0.0602 0.247479,0.0602 0.234102,0 0.401318,-0.14715 0.167215,-0.14715 0.280922,-0.36788 0.113707,-0.22072 0.180593,-0.47489 0.07357,-0.26086 0.120395,-0.48827 0.04013,-0.21404 0.133773,-0.30768 0.09364,-0.10033 0.19397,-0.10033 0.08026,0 0.167216,0.0535 0.08695,0.0468 0.153838,0.12709 0.07357,0.0803 0.113707,0.18059 0.04682,0.10033 0.04682,0.20066 0,0.0334 -0.0067,0.0535 -0.0067,0.0201 -0.0067,0.0401 -0.09364,0.34112 -0.247479,0.71568 -0.14715,0.37457 -0.381252,0.68893 -0.234102,0.31437 -0.561845,0.52171 -0.327742,0.20735 -0.769192,0.20735 z" />
      <path
         id="path822"
         style="font-style:normal;font-variant:normal;font-weight:normal;font-stretch:normal;font-family:'Grand Hotel';-inkscape-font-specification:'Grand Hotel';fill:#67aefc;fill-opacity:1;stroke-width:0.3424581"
         d="m 16.680579,294.91283 q 0.207347,0 0.354497,-0.14715 0.153838,-0.14715 0.260856,-0.36788 0.113707,-0.22072 0.180593,-0.47489 0.07358,-0.26086 0.120396,-0.48827 0.04682,-0.21404 0.133772,-0.30768 0.09364,-0.10033 0.200659,-0.10033 0.08026,0 0.160527,0.0535 0.08695,0.0468 0.153838,0.12709 0.07358,0.0803 0.113707,0.18059 0.04682,0.10033 0.04682,0.20066 0,0.0134 0,0.0334 0,0.0201 -0.01338,0.0602 -0.08695,0.34112 -0.24079,0.71568 -0.14715,0.37457 -0.381252,0.68893 -0.234102,0.31437 -0.568533,0.52171 -0.327743,0.20735 -0.769192,0.20735 -0.361186,0 -0.628731,-0.15384 -0.267545,-0.15384 -0.421384,-0.408 -0.207347,0.2341 -0.501647,0.39463 -0.287611,0.16721 -0.675551,0.16721 -0.401318,0 -0.708995,-0.16053 -0.300988,-0.16052 -0.508335,-0.43476 -0.207348,-0.28092 -0.314366,-0.65548 -0.100329,-0.38125 -0.100329,-0.81601 0,-0.85615 0.274234,-1.53839 0.274233,-0.68224 0.72906,-1.15713 0.454827,-0.48158 1.036737,-0.73575 0.588599,-0.25417 1.21733,-0.25417 0.280922,0 0.454827,0.15384 0.173904,0.15384 0.173904,0.42138 0,0.17391 -0.04013,0.24748 -0.03344,0.0669 -0.133772,0.0669 -0.09364,0 -0.19397,-0.0134 -0.10033,-0.0134 -0.207348,-0.0134 -0.38794,0 -0.789258,0.1739 -0.401317,0.16722 -0.72906,0.52171 -0.321054,0.34781 -0.528402,0.88959 -0.207347,0.53509 -0.207347,1.27753 0,0.54178 0.207347,0.83608 0.207348,0.28761 0.568534,0.28761 0.280922,0 0.468204,-0.20735 0.187281,-0.21404 0.300988,-0.50165 v -2.1136 q 0,-0.10033 -0.01338,-0.16722 -0.0067,-0.0669 -0.02007,-0.11371 -0.0067,-0.0468 -0.01338,-0.0803 -0.0067,-0.0401 -0.0067,-0.0736 0,-0.10702 0.100329,-0.16722 0.107018,-0.0669 0.254168,-0.0669 0.34112,0 0.541779,0.1806 0.200658,0.1739 0.200658,0.42138 v 2.26076 q 0,0.1137 0.02676,0.22741 0.02675,0.10702 0.08026,0.20066 0.05351,0.087 0.140462,0.14715 0.09364,0.0535 0.214036,0.0535 z" />
      <path
         id="path824"
         style="font-style:normal;font-variant:normal;font-weight:normal;font-stretch:normal;font-family:'Grand Hotel';-inkscape-font-specification:'Grand Hotel';fill:#67aefc;fill-opacity:1;stroke-width:0.3424581"
         d="m 19.844299,295.81579 q -0.454826,0 -0.882898,-0.16721 -0.428072,-0.16722 -0.762504,-0.49496 -0.327742,-0.32775 -0.528401,-0.80933 -0.19397,-0.48158 -0.19397,-1.117 0,-0.5886 0.167215,-1.15713 0.167216,-0.56853 0.461516,-1.00998 0.294299,-0.44814 0.702305,-0.72237 0.414695,-0.27424 0.902965,-0.27424 0.354497,0 0.601976,0.14715 0.247479,0.14046 0.401318,0.34781 0.153838,0.20066 0.220725,0.43476 0.07357,0.2341 0.07357,0.4147 0,0.13377 -0.07357,0.24079 -0.06689,0.10702 -0.167216,0.18059 -0.10033,0.0736 -0.220725,0.11371 -0.120395,0.0334 -0.214036,0.0267 -0.09364,-0.007 -0.153838,-0.0669 -0.05351,-0.0602 -0.03344,-0.1806 -0.02676,-0.087 -0.05351,-0.21403 -0.02007,-0.12709 -0.08026,-0.24079 -0.05351,-0.1204 -0.153838,-0.20066 -0.10033,-0.087 -0.274234,-0.087 -0.187282,0 -0.367874,0.1806 -0.173905,0.1739 -0.314366,0.48158 -0.133772,0.30768 -0.220725,0.71568 -0.08026,0.40801 -0.08026,0.86952 0,0.40801 0.100329,0.72237 0.107018,0.31437 0.2943,0.52841 0.187281,0.21403 0.441449,0.32774 0.260857,0.10702 0.561845,0.10702 0.401317,0 0.695617,-0.14715 0.300988,-0.15384 0.508336,-0.40132 0.207347,-0.24748 0.334431,-0.55516 0.127084,-0.30767 0.187281,-0.62204 0.04682,-0.22741 0.187282,-0.30099 0.14715,-0.0803 0.2943,-0.0401 0.153838,0.0401 0.260856,0.17391 0.113707,0.12708 0.09364,0.30767 -0.02676,0.20735 -0.10033,0.47489 -0.06689,0.26755 -0.200658,0.54178 -0.133773,0.27424 -0.34112,0.54178 -0.200659,0.26086 -0.494959,0.46821 -0.294299,0.20734 -0.688928,0.33443 -0.387941,0.12708 -0.889588,0.12708 z" />
      <path
         id="path826"
         style="font-style:normal;font-variant:normal;font-weight:normal;font-stretch:normal;font-family:'Grand Hotel';-inkscape-font-specification:'Grand Hotel';fill:#67aefc;fill-opacity:1;stroke-width:0.3424581"
         d="m 21.723803,286.99349 q 0,-0.14715 -0.02675,-0.2341 -0.02007,-0.087 -0.04682,-0.13377 -0.02006,-0.0535 -0.04682,-0.0803 -0.02007,-0.0335 -0.02007,-0.0669 0,-0.0401 0.04013,-0.0669 0.04013,-0.0267 0.107018,-0.0468 0.06689,-0.0201 0.140461,-0.0267 0.08026,-0.0134 0.153838,-0.0134 0.34112,0 0.535091,0.18059 0.200658,0.17391 0.200658,0.42139 v 4.27403 q 0.167216,-0.22741 0.347809,-0.42807 0.187282,-0.20735 0.38794,-0.36119 0.200659,-0.16053 0.414695,-0.25417 0.220725,-0.0936 0.454827,-0.0936 0.321054,0 0.548467,0.12709 0.227413,0.12039 0.374563,0.32774 0.153839,0.20735 0.220725,0.47489 0.07358,0.26086 0.07358,0.54847 0,0.39463 -0.127084,0.74244 -0.127084,0.34112 -0.321054,0.62204 -0.19397,0.28092 -0.428072,0.50165 -0.227414,0.22072 -0.434761,0.36787 0.04682,0.22073 0.127084,0.42807 0.08695,0.20066 0.207347,0.36119 0.120396,0.16053 0.274234,0.25417 0.160527,0.0936 0.361186,0.0936 0.234102,0 0.434761,-0.14046 0.207347,-0.14715 0.361185,-0.36119 0.160527,-0.22072 0.267545,-0.47489 0.107018,-0.26086 0.153839,-0.48827 0.04013,-0.20735 0.120395,-0.30099 0.08695,-0.0936 0.180593,-0.10033 0.100329,-0.0134 0.200659,0.0468 0.100329,0.0602 0.173904,0.16053 0.07357,0.0936 0.107018,0.21403 0.04013,0.1204 0.01338,0.22742 -0.09364,0.27423 -0.267545,0.64211 -0.173904,0.36787 -0.441449,0.69561 -0.267545,0.32774 -0.628731,0.55516 -0.361186,0.22741 -0.82939,0.22741 -0.401317,0 -0.735748,-0.20735 -0.327743,-0.20734 -0.568534,-0.52171 -0.234102,-0.31436 -0.361186,-0.68893 -0.127083,-0.37456 -0.127083,-0.71568 0,-0.10702 0.09364,-0.21404 0.09364,-0.1137 0.234102,-0.24079 0.14715,-0.13377 0.307677,-0.2943 0.167216,-0.16052 0.307677,-0.36118 0.14715,-0.20066 0.24079,-0.44814 0.09364,-0.25417 0.09364,-0.56853 0,-0.25417 -0.127084,-0.4147 -0.120395,-0.16053 -0.314365,-0.16053 -0.120395,0 -0.2943,0.0936 -0.167215,0.087 -0.354497,0.30767 -0.187281,0.22073 -0.374563,0.5886 -0.187282,0.36119 -0.347809,0.90297 v 2.35439 q 0,0.10033 -0.0067,0.20735 0,0.10033 -0.04013,0.18059 -0.03344,0.087 -0.113707,0.14046 -0.07358,0.0602 -0.220724,0.0602 -0.10033,0 -0.220725,-0.0267 -0.113707,-0.0201 -0.214036,-0.087 -0.09364,-0.0602 -0.160527,-0.18059 -0.0602,-0.1137 -0.0602,-0.30767 z" />
      <path
         id="path828"
         style="font-style:normal;font-variant:normal;font-weight:normal;font-stretch:normal;font-family:'Grand Hotel';-inkscape-font-specification:'Grand Hotel';fill:#67aefc;fill-opacity:1;stroke-width:0.3424581"
         d="m 27.7235,288.79273 q 0,0.10033 -0.140461,0.17391 -0.140461,0.0669 -0.307677,0.087 -0.167216,0.0201 -0.307677,-0.0134 -0.140461,-0.0401 -0.14715,-0.15384 v -2.36777 q 0,-0.0602 -0.02006,-0.0936 -0.01338,-0.0334 -0.03344,-0.0535 -0.01338,-0.0201 -0.03344,-0.0334 -0.01338,-0.0201 -0.01338,-0.0535 0,-0.0736 0.107018,-0.11371 0.107018,-0.0401 0.2943,-0.0401 0.09364,0 0.19397,0.0134 0.107018,0.007 0.19397,0.0334 0.09364,0.0268 0.153838,0.0736 0.0602,0.0468 0.0602,0.1137 z" />
      <path
         id="path830"
         style="font-style:normal;font-variant:normal;font-weight:normal;font-stretch:normal;font-family:'Grand Hotel';-inkscape-font-specification:'Grand Hotel';fill:#67aefc;fill-opacity:1;stroke-width:0.3424581"
         d="m 32.137994,291.44812 q 0,0.38125 -0.133773,0.78257 -0.127084,0.40132 -0.38794,0.7625 -0.254168,0.3545 -0.63542,0.64211 -0.374563,0.28092 -0.869521,0.42807 0.06689,0.17391 0.173904,0.33443 0.113707,0.15384 0.267545,0.26755 0.153839,0.1137 0.354497,0.18059 0.207348,0.0669 0.474893,0.0669 0.401318,0 0.688928,-0.14715 0.287611,-0.15384 0.481582,-0.40132 0.200658,-0.24748 0.321054,-0.55516 0.120395,-0.30767 0.180593,-0.62204 0.04682,-0.22741 0.187281,-0.30099 0.14715,-0.0803 0.2943,-0.0401 0.153838,0.0401 0.260856,0.17391 0.113707,0.12708 0.09364,0.30767 -0.02676,0.20735 -0.09364,0.47489 -0.0602,0.26755 -0.187281,0.54178 -0.127084,0.27424 -0.327743,0.54178 -0.19397,0.26086 -0.481581,0.46821 -0.287611,0.20734 -0.675552,0.33443 -0.38794,0.12708 -0.889587,0.12708 -0.468204,0 -0.909653,-0.18728 -0.434761,-0.18059 -0.775881,-0.52171 -0.334431,-0.34781 -0.541778,-0.84946 -0.200659,-0.50833 -0.200659,-1.15044 0,-0.6488 0.180593,-1.20395 0.180593,-0.56185 0.474892,-0.96986 0.2943,-0.408 0.668863,-0.63542 0.374563,-0.2341 0.769192,-0.2341 0.287611,0 0.515024,0.10033 0.234102,0.10033 0.394629,0.28761 0.160527,0.1806 0.240791,0.43476 0.08695,0.25417 0.08695,0.56185 z m -2.207247,1.61865 q 0,0.0602 0.0067,0.12039 0.0067,0.0602 0.0067,0.12709 0.254168,-0.1204 0.461515,-0.30768 0.207348,-0.18728 0.354498,-0.42807 0.147149,-0.24079 0.227413,-0.52172 0.08026,-0.28761 0.08026,-0.59528 0,-0.22742 -0.08026,-0.3545 -0.07357,-0.12709 -0.207347,-0.12709 -0.167216,0 -0.300989,0.11371 -0.127084,0.11371 -0.227413,0.30099 -0.09364,0.18059 -0.160527,0.41469 -0.0602,0.22742 -0.100329,0.46152 -0.04013,0.2341 -0.05351,0.44814 -0.01338,0.20734 -0.0067,0.34781 z" />
      <path
         id="path832"
         style="font-style:normal;font-variant:normal;font-weight:normal;font-stretch:normal;font-family:'Grand Hotel';-inkscape-font-specification:'Grand Hotel';fill:#67aefc;fill-opacity:1;stroke-width:0.3424581"
         d="m 41.227837,293.68212 q -0.09364,0.34112 -0.247479,0.71568 -0.14715,0.37457 -0.381252,0.68893 -0.234102,0.31437 -0.561845,0.52171 -0.327742,0.20735 -0.769192,0.20735 -0.274233,0 -0.488269,-0.10702 -0.207348,-0.10033 -0.361186,-0.27423 -0.14715,-0.1739 -0.227413,-0.40801 -0.07357,-0.2341 -0.07357,-0.49495 v -2.78247 q 0,-0.16053 -0.0067,-0.30099 -0.0067,-0.14046 -0.03344,-0.24748 -0.02676,-0.10702 -0.08026,-0.16722 -0.04682,-0.0669 -0.133772,-0.0669 -0.140461,0 -0.34112,0.20066 -0.200659,0.20065 -0.38794,0.52171 -0.187282,0.32105 -0.334432,0.72906 -0.14715,0.40132 -0.173904,0.80932 v 1.9999 q 0,0.10033 -0.0067,0.20735 0,0.10033 -0.04013,0.18059 -0.03344,0.087 -0.113707,0.14046 -0.07358,0.0602 -0.220725,0.0602 -0.100329,0 -0.220724,-0.0267 -0.113707,-0.0201 -0.214037,-0.087 -0.09364,-0.0602 -0.160527,-0.18059 -0.0602,-0.1137 -0.0602,-0.30767 v -3.46471 q 0,-0.16053 -0.01338,-0.30099 -0.0067,-0.14046 -0.03344,-0.24748 -0.02675,-0.10702 -0.08026,-0.16722 -0.04682,-0.0669 -0.133773,-0.0669 -0.140461,0 -0.34112,0.20066 -0.19397,0.20065 -0.38794,0.52171 -0.187281,0.32105 -0.334431,0.72906 -0.140461,0.40132 -0.173905,0.80932 v 1.9999 q 0,0.10033 -0.0067,0.20735 0,0.10033 -0.04013,0.18059 -0.03344,0.087 -0.113707,0.14046 -0.07357,0.0602 -0.220724,0.0602 -0.10033,0 -0.220725,-0.0267 -0.113707,-0.0201 -0.214036,-0.087 -0.09364,-0.0602 -0.160527,-0.18059 -0.0602,-0.1137 -0.0602,-0.30767 v -4.34092 q 0,-0.19397 -0.03344,-0.28093 -0.02675,-0.087 -0.02675,-0.16052 0,-0.10033 0.107018,-0.16053 0.107018,-0.0669 0.254168,-0.0669 0.34112,0 0.53509,0.1806 0.200658,0.1739 0.200658,0.42138 v 0.57522 q 0.133773,-0.28092 0.287611,-0.52171 0.160527,-0.24079 0.34112,-0.4147 0.180593,-0.18059 0.381252,-0.28092 0.207347,-0.10033 0.441449,-0.10033 0.307677,0 0.508336,0.11371 0.207347,0.11371 0.327743,0.30099 0.127084,0.18728 0.180593,0.42138 0.05351,0.22741 0.06689,0.45483 0.127084,-0.27424 0.280922,-0.50834 0.153839,-0.2341 0.334432,-0.408 0.180592,-0.17391 0.381251,-0.27424 0.207348,-0.10033 0.44145,-0.10033 0.334431,0 0.548467,0.12709 0.214036,0.12708 0.334431,0.32774 0.120396,0.20066 0.167216,0.44814 0.04682,0.24748 0.04682,0.48158 v 2.83598 q 0,0.0468 0.0067,0.15383 0.0067,0.10033 0.04013,0.20735 0.03344,0.10702 0.100329,0.18728 0.07358,0.0803 0.207348,0.0803 0.207347,0 0.354497,-0.14715 0.153838,-0.14715 0.260856,-0.36788 0.113707,-0.22072 0.187282,-0.47489 0.07357,-0.26086 0.120395,-0.48827 0.04013,-0.21404 0.127084,-0.30768 0.09364,-0.10033 0.200659,-0.10033 0.08026,0 0.160527,0.0535 0.08695,0.0468 0.153838,0.12709 0.07358,0.0803 0.113707,0.18059 0.04682,0.10033 0.04682,0.20066 0,0.0134 0,0.0334 0,0.0201 -0.01338,0.0602 z" />
      <path
         id="path834"
         style="font-style:normal;font-variant:normal;font-weight:normal;font-stretch:normal;font-family:'Grand Hotel';-inkscape-font-specification:'Grand Hotel';fill:#67aefc;fill-opacity:1;stroke-width:0.3424581"
         d="m 47.381375,294.91283 q 0.207347,0 0.354497,-0.14715 0.153838,-0.14715 0.260856,-0.36788 0.113707,-0.22072 0.180593,-0.47489 0.07357,-0.26086 0.120396,-0.48827 0.04682,-0.21404 0.133772,-0.30768 0.09364,-0.10033 0.200659,-0.10033 0.08026,0 0.160527,0.0535 0.08695,0.0468 0.153838,0.12709 0.07357,0.0803 0.113707,0.18059 0.04682,0.10033 0.04682,0.20066 0,0.0134 0,0.0334 0,0.0201 -0.01338,0.0602 -0.08695,0.34112 -0.24079,0.71568 -0.14715,0.37457 -0.381252,0.68893 -0.234102,0.31437 -0.568533,0.52171 -0.327743,0.20735 -0.769192,0.20735 -0.361186,0 -0.628731,-0.15384 -0.267545,-0.15384 -0.421384,-0.408 -0.207347,0.2341 -0.501647,0.39463 -0.287611,0.16721 -0.675551,0.16721 -0.401318,0 -0.708994,-0.16053 -0.300989,-0.16052 -0.508336,-0.43476 -0.207347,-0.28092 -0.314365,-0.65548 -0.10033,-0.38125 -0.10033,-0.81601 0,-0.85615 0.274234,-1.53839 0.274234,-0.68224 0.72906,-1.15713 0.454827,-0.48158 1.036737,-0.73575 0.588599,-0.25417 1.21733,-0.25417 0.280923,0 0.454827,0.15384 0.173904,0.15384 0.173904,0.42138 0,0.17391 -0.04013,0.24748 -0.03344,0.0669 -0.133772,0.0669 -0.09364,0 -0.19397,-0.0134 -0.10033,-0.0134 -0.207348,-0.0134 -0.38794,0 -0.789258,0.1739 -0.401317,0.16722 -0.72906,0.52171 -0.321054,0.34781 -0.528401,0.88959 -0.207348,0.53509 -0.207348,1.27753 0,0.54178 0.207348,0.83608 0.207347,0.28761 0.568533,0.28761 0.280922,0 0.468204,-0.20735 0.187281,-0.21404 0.300988,-0.50165 v -2.1136 q 0,-0.10033 -0.01338,-0.16722 -0.0067,-0.0669 -0.02007,-0.11371 -0.0067,-0.0468 -0.01338,-0.0803 -0.0067,-0.0401 -0.0067,-0.0736 0,-0.10702 0.100329,-0.16722 0.107018,-0.0669 0.254168,-0.0669 0.34112,0 0.541779,0.1806 0.200659,0.1739 0.200659,0.42138 v 2.26076 q 0,0.1137 0.02675,0.22741 0.02676,0.10702 0.08026,0.20066 0.05351,0.087 0.140461,0.14715 0.09364,0.0535 0.214036,0.0535 z" />
      <path
         id="path836"
         style="font-style:normal;font-variant:normal;font-weight:normal;font-stretch:normal;font-family:'Grand Hotel';-inkscape-font-specification:'Grand Hotel';fill:#67aefc;fill-opacity:1;stroke-width:0.3424581"
         d="m 49.394652,291.38123 q 0.07357,-0.14046 0.140461,-0.37456 0.07357,-0.24079 0.133772,-0.5284 0.06689,-0.28761 0.120396,-0.60198 0.05351,-0.31436 0.09364,-0.61535 0.04013,-0.30099 0.0602,-0.56185 0.02675,-0.26754 0.02675,-0.45482 0,-0.68224 -0.10033,-0.99661 -0.100329,-0.32105 -0.267545,-0.32105 -0.05351,0 -0.09364,0.0535 -0.04013,0.0535 -0.06689,0.14046 -0.02675,0.0803 -0.04013,0.18059 -0.0067,0.0936 -0.0067,0.1739 z m 1.94639,2.06679 q 0.04013,-0.20066 0.120395,-0.28761 0.08695,-0.0936 0.180593,-0.10033 0.10033,-0.0134 0.200659,0.0468 0.100329,0.0535 0.173904,0.14715 0.07357,0.0936 0.107018,0.21403 0.04013,0.11371 0.01338,0.22742 -0.09364,0.27423 -0.267545,0.64211 -0.173905,0.36787 -0.44145,0.69561 -0.267545,0.32774 -0.628731,0.55516 -0.361185,0.22741 -0.829389,0.22741 -0.394629,0 -0.695617,-0.13377 -0.300989,-0.12708 -0.508336,-0.36119 -0.200659,-0.24079 -0.307677,-0.56853 -0.100329,-0.33443 -0.100329,-0.74244 v -6.2338 q 0,-0.38125 0.09364,-0.7023 0.10033,-0.32775 0.267546,-0.55516 0.173904,-0.2341 0.401317,-0.36119 0.227413,-0.13377 0.481581,-0.13377 0.300988,0 0.508336,0.11371 0.207347,0.10702 0.34112,0.28761 0.133772,0.18059 0.207347,0.41469 0.08026,0.23411 0.113707,0.48159 0.03344,0.24079 0.04013,0.48158 0.0067,0.2341 0.0067,0.42807 0,0.50165 -0.09364,1.0568 -0.09364,0.54847 -0.24079,1.08356 -0.140461,0.53509 -0.314366,1.03005 -0.167215,0.48827 -0.327742,0.86952 -0.153839,0.38125 -0.280923,0.62204 -0.120395,0.24079 -0.167215,0.28092 v 0.79595 q 0,0.4147 0.173904,0.68224 0.173904,0.26086 0.555156,0.26086 0.234102,0 0.434761,-0.14046 0.207347,-0.14715 0.361186,-0.36119 0.160527,-0.22072 0.267545,-0.47489 0.107018,-0.26086 0.153838,-0.48827 z" />
      <path
         id="path838"
         style="font-style:normal;font-variant:normal;font-weight:normal;font-stretch:normal;font-family:'Grand Hotel';-inkscape-font-specification:'Grand Hotel';fill:#67aefc;fill-opacity:1;stroke-width:0.3424581"
         d="m 52.411223,291.38123 q 0.07357,-0.14046 0.140461,-0.37456 0.07357,-0.24079 0.133773,-0.5284 0.06689,-0.28761 0.120395,-0.60198 0.05351,-0.31436 0.09364,-0.61535 0.04013,-0.30099 0.0602,-0.56185 0.02676,-0.26754 0.02676,-0.45482 0,-0.68224 -0.10033,-0.99661 -0.100329,-0.32105 -0.267545,-0.32105 -0.05351,0 -0.09364,0.0535 -0.04013,0.0535 -0.06689,0.14046 -0.02675,0.0803 -0.04013,0.18059 -0.0067,0.0936 -0.0067,0.1739 z m 1.94639,2.06679 q 0.04013,-0.20066 0.120395,-0.28761 0.08695,-0.0936 0.180593,-0.10033 0.10033,-0.0134 0.200659,0.0468 0.10033,0.0535 0.173904,0.14715 0.07357,0.0936 0.107018,0.21403 0.04013,0.11371 0.01338,0.22742 -0.09364,0.27423 -0.267545,0.64211 -0.173905,0.36787 -0.44145,0.69561 -0.267545,0.32774 -0.628731,0.55516 -0.361185,0.22741 -0.829389,0.22741 -0.394629,0 -0.695617,-0.13377 -0.300989,-0.12708 -0.508336,-0.36119 -0.200659,-0.24079 -0.307677,-0.56853 -0.100329,-0.33443 -0.100329,-0.74244 v -6.2338 q 0,-0.38125 0.09364,-0.7023 0.100329,-0.32775 0.267545,-0.55516 0.173904,-0.2341 0.401317,-0.36119 0.227413,-0.13377 0.481581,-0.13377 0.300988,0 0.508336,0.11371 0.207347,0.10702 0.34112,0.28761 0.133772,0.18059 0.207347,0.41469 0.08026,0.23411 0.113707,0.48159 0.03344,0.24079 0.04013,0.48158 0.0067,0.2341 0.0067,0.42807 0,0.50165 -0.09364,1.0568 -0.09364,0.54847 -0.240791,1.08356 -0.140461,0.53509 -0.314365,1.03005 -0.167216,0.48827 -0.327743,0.86952 -0.153839,0.38125 -0.280922,0.62204 -0.120396,0.24079 -0.167216,0.28092 v 0.79595 q 0,0.4147 0.173904,0.68224 0.173904,0.26086 0.555156,0.26086 0.234102,0 0.434761,-0.14046 0.207347,-0.14715 0.361186,-0.36119 0.160527,-0.22072 0.267545,-0.47489 0.107018,-0.26086 0.153838,-0.48827 z" />
    </g>
    <g
       style="fill:#67aefc;fill-opacity:1"
       transform="matrix(0.01305734,0.00316678,-0.00316678,0.01305734,55.760344,287.62097)"
       id="g823">
      <path
         style="fill:#67aefc;fill-opacity:1"
         d="m 150.6,247.7 85.3,85.3 c 5.3,5.3 12.6,8.3 20.1,8.3 7.5,0 14.8,-3 20.1,-8.3 L 503.7,105.4 c 11.1,-11.1 11.1,-29.1 0,-40.2 -11.1,-11.1 -29.1,-11.1 -40.2,0 L 256,272.7 190.8,207.5 c -11.1,-11.1 -29.1,-11.1 -40.2,0 -11.2,11.1 -11.2,29.1 0,40.2 z"
         id="path819" />
      <path
         style="fill:#67aefc;fill-opacity:1"
         d="m 455.1,256 v 170.7 c 0,15.7 -12.8,28.4 -28.4,28.4 H 85.3 c -15.7,0 -28.4,-12.8 -28.4,-28.4 V 85.3 c 0,-15.7 12.8,-28.4 28.4,-28.4 h 256 C 357,56.9 369.7,44.2 369.7,28.5 369.8,12.7 357,0 341.3,0 H 85.3 C 38.2,0 0,38.2 0,85.3 V 426.6 C 0,473.8 38.2,512 85.3,512 h 341.3 c 47.1,0 85.3,-38.2 85.3,-85.3 V 256 c 0,-15.7 -12.7,-28.4 -28.4,-28.4 -15.7,0 -28.4,12.7 -28.4,28.4 z"
         id="path821" />
    </g>
  </g>
</svg>
